<mxfile host="app.diagrams.net" agent="Mozilla/5.0 (Macintosh; Intel Mac OS X 10_15_7) AppleWebKit/537.36 (KHTML, like Gecko) Chrome/134.0.0.0 Safari/537.36" version="26.1.3">
  <diagram name="第 1 页" id="Rr8ANNYwBg8zSkNsdoLB">
    <mxGraphModel dx="830" dy="466" grid="1" gridSize="10" guides="1" tooltips="1" connect="1" arrows="1" fold="1" page="1" pageScale="1" pageWidth="827" pageHeight="1169" math="0" shadow="0">
      <root>
        <mxCell id="0" />
        <mxCell id="1" parent="0" />
        <mxCell id="feQMkE1MioSjfbpKdc6v-1" value="&lt;span style=&quot;color: rgb(56, 58, 66); font-family: &amp;quot;Source Code Pro&amp;quot;, monospace; font-size: 18px; font-style: normal; font-variant-ligatures: normal; font-variant-caps: normal; font-weight: 400; letter-spacing: normal; orphans: 2; text-align: start; text-indent: 0px; text-transform: none; widows: 2; word-spacing: 0px; -webkit-text-stroke-width: 0px; white-space: pre-wrap; background-color: rgb(255, 255, 255); text-decoration-thickness: initial; text-decoration-style: initial; text-decoration-color: initial; display: inline !important; float: none;&quot;&gt;   +--+&#xa;  ++  |&#xa;+-++--+&#xa;|  |  |&#xa;+--+--+&lt;/span&gt;" style="text;whiteSpace=wrap;html=1;" vertex="1" parent="1">
          <mxGeometry x="50" y="170" width="110" height="130" as="geometry" />
        </mxCell>
        <mxCell id="feQMkE1MioSjfbpKdc6v-2" value="0,3" style="text;html=1;align=center;verticalAlign=middle;resizable=0;points=[];autosize=1;strokeColor=none;fillColor=none;" vertex="1" parent="1">
          <mxGeometry x="310" y="148" width="40" height="30" as="geometry" />
        </mxCell>
        <mxCell id="feQMkE1MioSjfbpKdc6v-3" value="0,6" style="text;html=1;align=right;verticalAlign=middle;resizable=0;points=[];autosize=1;strokeColor=none;fillColor=none;" vertex="1" parent="1">
          <mxGeometry x="400" y="148" width="40" height="30" as="geometry" />
        </mxCell>
        <mxCell id="feQMkE1MioSjfbpKdc6v-4" value="2,6" style="text;html=1;align=right;verticalAlign=middle;resizable=0;points=[];autosize=1;strokeColor=none;fillColor=none;" vertex="1" parent="1">
          <mxGeometry x="400" y="238" width="40" height="30" as="geometry" />
        </mxCell>
        <mxCell id="feQMkE1MioSjfbpKdc6v-5" value="4,6" style="text;html=1;align=right;verticalAlign=middle;resizable=0;points=[];autosize=1;strokeColor=none;fillColor=none;" vertex="1" parent="1">
          <mxGeometry x="400" y="300" width="40" height="30" as="geometry" />
        </mxCell>
        <mxCell id="feQMkE1MioSjfbpKdc6v-6" value="1,3" style="text;html=1;align=center;verticalAlign=middle;resizable=0;points=[];autosize=1;strokeColor=none;fillColor=none;" vertex="1" parent="1">
          <mxGeometry x="310" y="188" width="40" height="30" as="geometry" />
        </mxCell>
        <mxCell id="feQMkE1MioSjfbpKdc6v-7" value="2,3" style="text;html=1;align=center;verticalAlign=middle;resizable=0;points=[];autosize=1;strokeColor=none;fillColor=none;" vertex="1" parent="1">
          <mxGeometry x="310" y="238" width="40" height="30" as="geometry" />
        </mxCell>
        <mxCell id="feQMkE1MioSjfbpKdc6v-8" value="4,3" style="text;html=1;align=center;verticalAlign=middle;resizable=0;points=[];autosize=1;strokeColor=none;fillColor=none;" vertex="1" parent="1">
          <mxGeometry x="310" y="300" width="40" height="30" as="geometry" />
        </mxCell>
        <mxCell id="feQMkE1MioSjfbpKdc6v-9" value="4,0" style="text;html=1;align=center;verticalAlign=middle;resizable=0;points=[];autosize=1;strokeColor=none;fillColor=none;" vertex="1" parent="1">
          <mxGeometry x="230" y="300" width="40" height="30" as="geometry" />
        </mxCell>
        <mxCell id="feQMkE1MioSjfbpKdc6v-10" value="2,0" style="text;html=1;align=center;verticalAlign=middle;resizable=0;points=[];autosize=1;strokeColor=none;fillColor=none;" vertex="1" parent="1">
          <mxGeometry x="220" y="238" width="40" height="30" as="geometry" />
        </mxCell>
        <mxCell id="feQMkE1MioSjfbpKdc6v-11" value="2,2" style="text;html=1;align=center;verticalAlign=middle;resizable=0;points=[];autosize=1;strokeColor=none;fillColor=none;" vertex="1" parent="1">
          <mxGeometry x="260" y="238" width="40" height="30" as="geometry" />
        </mxCell>
        <mxCell id="feQMkE1MioSjfbpKdc6v-12" value="1,2" style="text;html=1;align=center;verticalAlign=middle;resizable=0;points=[];autosize=1;strokeColor=none;fillColor=none;" vertex="1" parent="1">
          <mxGeometry x="260" y="188" width="40" height="30" as="geometry" />
        </mxCell>
      </root>
    </mxGraphModel>
  </diagram>
</mxfile>
